squats_1_grf
version=1
nRows=30
nColumns=19
inDegrees=no
endheader
time	ground_force_right_vx	ground_force_right_vy	ground_force_right_vz	ground_force_right_px	ground_force_right_py	ground_force_right_pz	ground_force_right_mx	ground_force_right_my	ground_force_right_mz	ground_force_left_vx	ground_force_left_vy	ground_force_left_vz	ground_force_left_px	ground_force_left_py	ground_force_left_pz	ground_force_left_mx	ground_force_left_my	ground_force_left_mz
     20.99000000	      2.81708719	    247.84296251	     23.99245691	     -3.42623054	      0.00734996	      2.31839578	     -0.00360057	      1.23526411	      0.00559297	    -16.72700453	    237.32210511	    -25.38263964	     -3.40442296	      0.00818302	      2.67939915	      0.00384922	     -1.15852896	      0.00201176
     20.99100000	      2.66428658	    247.77003162	     24.02919346	     -3.42633817	      0.00734991	      2.31833903	     -0.00360784	      1.23775819	      0.00560426	    -16.74653903	    235.94907482	    -25.20185733	     -3.40426165	      0.00818351	      2.67937256	      0.00382267	     -1.15053856	      0.00199789
     20.99200000	      2.50366453	    247.68971231	     24.06642270	     -3.42644483	      0.00734985	      2.31828212	     -0.00361597	      1.24054627	      0.00561688	    -16.76201706	    234.50997910	    -25.01394152	     -3.40409722	      0.00818401	      2.67934495	      0.00379571	     -1.14242475	      0.00198380
     20.99300000	      2.33521652	    247.60112684	     24.10373768	     -3.42654987	      0.00734980	      2.31822536	     -0.00362499	      1.24364270	      0.00563090	    -16.77314821	    233.00683036	    -24.81938834	     -3.40393052	      0.00818451	      2.67931646	      0.00376849	     -1.13423135	      0.00196957
     20.99400000	      2.15894079	    247.50333661	     24.14070157	     -3.42665265	      0.00734976	      2.31816906	     -0.00363496	      1.24706090	      0.00564638	    -16.77969123	    231.44186943	    -24.61873250	     -3.40376241	      0.00818502	      2.67928726	      0.00374115	     -1.12600133	      0.00195528
     20.99500000	      1.97483732	    247.39534829	     24.17685184	     -3.42675258	      0.00734972	      2.31811354	     -0.00364589	      1.25081316	      0.00566337	    -16.78145914	    229.81754091	    -24.41254255	     -3.40359379	      0.00818553	      2.67925750	      0.00371382	     -1.11777604	      0.00194099
     20.99600000	      1.78290741	    247.27612186	     24.21170511	     -3.42684912	      0.00734968	      2.31805908	     -0.00365784	      1.25491050	      0.00568192	    -16.77832335	    228.13646926	    -24.20141595	     -3.40342554	      0.00818604	      2.67922738	      0.00368663	     -1.10959453	      0.00192679
     20.99700000	      1.58315396	    247.14458042	     24.24476252	     -3.42694174	      0.00734966	      2.31800595	     -0.00367081	      1.25936251	      0.00570208	    -16.77021671	    226.40143585	    -23.98597418	     -3.40325852	      0.00818654	      2.67919708	      0.00365972	     -1.10149301	      0.00191272
     20.99800000	      1.37558239	    246.99962209	     24.27551574	     -3.42703001	      0.00734963	      2.31795440	     -0.00368485	      1.26417718	      0.00572388	    -16.75713523	    224.61535772	    -23.76685790	     -3.40309359	      0.00818703	      2.67916679	      0.00363317	     -1.09350433	      0.00189885
     20.99900000	      1.16020235	    246.84013368	     24.30345356	     -3.42711352	      0.00734961	      2.31790465	     -0.00369996	      1.26936074	      0.00574735	    -16.73913852	    222.78126815	    -23.54472216	     -3.40293158	      0.00818752	      2.67913671	      0.00360710	     -1.08565765	      0.00188522
     21.00000000	      0.93703036	    246.66500641	     24.32806886	     -3.42719195	      0.00734960	      2.31785690	     -0.00371615	      1.27491757	      0.00577251	    -16.71634872	    220.90229950	    -23.32023205	     -3.40277327	      0.00818799	      2.67910704	      0.00358159	     -1.07797816	      0.00187189
     21.00100000	      0.70609318	    246.47315339	     24.34886616	     -3.42726504	      0.00734959	      2.31781132	     -0.00373345	      1.28085005	      0.00579937	    -16.68894802	    218.98166856	    -23.09405839	     -3.40261941	      0.00818845	      2.67907796	      0.00355670	     -1.07048701	      0.00185888
     21.00200000	      0.46743214	    246.26352889	     24.36536941	     -3.42733259	      0.00734959	      2.31776804	     -0.00375183	      1.28715849	      0.00582793	    -16.65717466	    217.02266453	    -22.86687407	     -3.40247069	      0.00818890	      2.67904969	      0.00353249	     -1.06320119	      0.00184623
     21.00300000	      0.22110834	    246.03514917	     24.37713009	     -3.42739448	      0.00734960	      2.31772716	     -0.00377131	      1.29384105	      0.00585819	    -16.62131750	    215.02863982	    -22.63935058	     -3.40232777	      0.00818933	      2.67902240	      0.00350901	     -1.05613364	      0.00183395
     21.00400000	     -0.03279148	    245.78711478	     24.38373545	     -3.42745066	      0.00734961	      2.31768875	     -0.00379187	      1.30089368	      0.00589012	    -16.58170926	    213.00300356	    -22.41215524	     -3.40219121	      0.00818974	      2.67899630	      0.00348628	     -1.04929334	      0.00182207
     21.00500000	     -0.29414818	    245.51863391	     24.38481671	     -3.42750114	      0.00734962	      2.31765284	     -0.00381349	      1.30831019	      0.00592370	    -16.53871847	    210.94921801	    -22.18594881	     -3.40206155	      0.00819012	      2.67897156	      0.00346433	     -1.04268558	      0.00181060
     21.00600000	     -0.56280310	    245.22904667	     24.38005724	     -3.42754601	      0.00734964	      2.31761944	     -0.00383614	      1.31608222	      0.00595889	    -16.49274038	    208.87079740	    -21.96138377	     -3.40193924	      0.00819049	      2.67894837	      0.00344315	     -1.03631215	      0.00179953
     21.00700000	     -0.83855037	    244.91784982	     24.36920036	     -3.42758541	      0.00734967	      2.31758852	     -0.00385980	      1.32419933	      0.00599564	    -16.44418684	    206.77130934	    -21.73910313	     -3.40182467	      0.00819083	      2.67892688	      0.00342275	     -1.03017166	      0.00178887
     21.00800000	     -1.12112917	    244.58472159	     24.35205671	     -3.42761954	      0.00734970	      2.31756002	     -0.00388443	      1.33264912	      0.00603390	    -16.39347550	    204.65437830	    -21.51973992	     -3.40171818	      0.00819115	      2.67890728	      0.00340311	     -1.02425989	      0.00177860
     21.00900000	     -1.41021592	    244.22954615	     24.32851115	     -3.42764867	      0.00734973	      2.31753384	     -0.00390999	      1.34141735	      0.00607360	    -16.34101846	    202.52369086	    -21.30391718	     -3.40162005	      0.00819145	      2.67888970	      0.00338421	     -1.01857014	      0.00176872
     21.01000000	     -1.70541684	    243.85243723	     24.29852879	     -3.42767309	      0.00734977	      2.31750989	     -0.00393643	      1.35048806	      0.00611467	    -16.28721060	    200.38300238	    -21.09224858	     -3.40153048	      0.00819172	      2.67887431	      0.00336601	     -1.01309366	      0.00175921
     21.01100000	     -2.00626099	    243.45376038	     24.26216024	     -3.42769317	      0.00734981	      2.31748802	     -0.00396370	      1.35984378	      0.00615703	    -16.23241788	    198.23614465	    -20.88533954	     -3.40144963	      0.00819196	      2.67886123	      0.00334849	     -1.00781998	      0.00175006
     21.01200000	     -2.31219406	    243.03415345	     24.21954586	     -3.42770929	      0.00734985	      2.31746809	     -0.00399174	      1.36946572	      0.00620060	    -16.17696585	    196.08703403	    -20.68378869	     -3.40137762	      0.00819219	      2.67885060	      0.00333160	     -1.00273742	      0.00174123
     21.01300000	     -2.62257331	    242.59454465	     24.17091878	     -3.42772186	      0.00734990	      2.31744992	     -0.00402051	      1.37933389	      0.00624528	    -16.12112866	    193.93967969	    -20.48818979	     -3.40131452	      0.00819238	      2.67884253	      0.00331531	     -0.99783343	      0.00173272
     21.01400000	     -2.93666363	    242.13616789	     24.11660684	     -3.42773132	      0.00734995	      2.31743333	     -0.00404993	      1.38942736	      0.00629098	    -16.06511873	    191.79819129	    -20.29913363	     -3.40126035	      0.00819255	      2.67883715	      0.00329956	     -0.99309505	      0.00172449
     21.01500000	     -3.25363519	    241.66057481	     24.05703306	     -3.42773814	      0.00735000	      2.31741813	     -0.00407994	      1.39972442	      0.00633760	    -16.00907752	    189.66678574	    -20.11721015	     -3.40121513	      0.00819270	      2.67883455	      0.00328433	     -0.98850930	      0.00171652
     21.01600000	     -3.57256270	    241.16964325	     23.99271483	     -3.42774278	      0.00735005	      2.31740412	     -0.00411048	      1.41020267	      0.00638505	    -15.95306746	    187.54979231	    -19.94301031	     -3.40117881	      0.00819282	      2.67883484	      0.00326956	     -0.98406351	      0.00170880
     21.01700000	     -3.89242651	    240.66558166	     23.92426160	     -3.42774570	      0.00735010	      2.31739110	     -0.00414149	      1.42083928	      0.00643321	    -15.89706531	    185.45165582	    -19.77712778	     -3.40115138	      0.00819292	      2.67883811	      0.00325521	     -0.97974572	      0.00170131
     21.01800000	     -4.21211572	    240.15092916	     23.85237117	     -3.42774738	      0.00735015	      2.31737886	     -0.00417289	      1.43161100	      0.00648198	    -15.84095726	    183.37693722	    -19.62016014	     -3.40113277	      0.00819299	      2.67884442	      0.00324125	     -0.97554495	      0.00169401
     21.01900000	     -4.53043327	    239.62855113	     23.77782444	     -3.42774825	      0.00735020	      2.31736721	     -0.00420461	      1.44249433	      0.00653126	    -15.78453578	    181.33031131	    -19.47270957	     -3.40112294	      0.00819304	      2.67885387	      0.00322765	     -0.97145143	      0.00168690
